<svg width="53" height="49" viewBox="0 0 53 49" fill="none" xmlns="http://www.w3.org/2000/svg">
<g clip-path="url(#clip0_4_9)">
<path d="M44.2036 30.0045C45.5764 28.6218 46.2603 26.9045 46.2603 24.8578C46.2603 23.3553 45.8859 22.0124 45.1321 20.8393C44.3783 19.6662 43.4398 18.8226 42.3216 18.3134C40.9938 17.7094 39.2965 17.4099 37.2299 17.4099C36.6109 17.4099 36.0468 17.4398 35.5476 17.4997C35.0434 17.5596 34.664 17.6345 34.3944 17.7244C34.3645 17.9041 34.3345 18.0688 34.3046 18.2186C34.2746 18.3683 34.2547 18.558 34.2397 18.7827C34.2247 19.0073 34.2097 19.2869 34.1948 19.6163C34.1798 19.9458 34.1598 20.3851 34.1299 20.9242C34.0999 21.9775 34.0799 23.1356 34.065 24.3986C34.05 25.6616 34.045 26.8646 34.045 28.0078V32.3408H36.526C37.2049 32.3408 37.749 32.3258 38.1633 32.2958C40.8191 32.1461 42.8358 31.3773 44.2086 29.9945L44.2036 30.0045Z" fill="#1E1E1E"/>
<path d="M21.3156 1.61539C22.6135 2.30927 23.6618 3.24776 24.4605 4.43584C25.2592 5.62392 25.6585 7.1215 25.6585 8.92858C25.6585 10.0418 25.4589 11.0452 25.0595 11.9287C24.6602 12.8173 24.131 13.601 23.4671 14.2749C22.8032 14.9538 22.0294 15.5329 21.1408 16.0121C20.2573 16.4914 19.3238 16.9007 18.3504 17.2302V17.3649C18.8495 17.6345 19.3388 18.0289 19.813 18.5381C20.2872 19.0522 20.7415 19.6213 21.1858 20.2553C21.9545 21.3984 22.7882 22.6314 23.6867 23.9543C24.5853 25.2772 25.394 26.4503 26.0978 27.4736C27.1661 29.0011 28.2044 30.1243 29.2128 30.8482V28.5569C29.2128 27.8929 29.2028 27.219 29.1928 26.5251C29.1779 25.8313 29.1729 25.0376 29.1729 24.134C29.1729 23.5949 29.1579 23.0458 29.1279 22.4867C29.098 21.9326 29.0481 21.3984 28.9732 20.8843C28.8983 20.3751 28.8085 19.9158 28.7086 19.5065C28.6038 19.1021 28.464 18.8076 28.2893 18.6279C27.845 18.1487 27.4057 17.8242 26.9614 17.6595C26.5172 17.4947 25.8982 17.3649 25.0994 17.2751V16.8258H40.0253C41.1485 16.8258 42.2168 16.8957 43.2351 17.0305C44.2535 17.1653 45.2369 17.4149 46.1804 17.7743C47.688 18.3484 48.926 19.217 49.8994 20.3901C50.8728 21.5632 51.362 23.0508 51.362 24.8578C51.362 26.8446 50.733 28.447 49.4801 29.6651C48.2271 30.8831 46.5947 31.7018 44.588 32.1261V32.3058C45.6512 32.4256 46.6996 32.6902 47.7329 33.0945C48.7662 33.4989 49.6897 34.048 50.4984 34.7419C51.3121 35.4358 51.961 36.2544 52.4453 37.2029C52.4702 37.2478 52.4852 37.2977 52.5052 37.3427C52.3754 25.2272 52.1807 10.1217 52.0509 1.29591C44.0488 1.1761 31.3294 1.02634 19.6532 0.91153C20.2273 1.10122 20.7864 1.32586 21.3106 1.61539H21.3156Z" fill="#1E1E1E"/>
<path d="M47.9925 40.9269C47.9925 40.0533 47.8527 39.2346 47.5731 38.4659C47.2936 37.6971 46.9092 36.9932 46.42 36.3443C45.9308 35.6953 45.3567 35.1412 44.6928 34.672C44.0289 34.2077 43.3 33.8383 42.5013 33.5638C41.8524 33.3541 41.2084 33.2093 40.5744 33.1345C39.9405 33.0596 39.1917 33.0197 38.3381 33.0197H34.04V38.6605C34.04 39.5042 34.045 40.2779 34.06 40.9868C34.0749 41.6956 34.0799 42.3047 34.0799 42.8138C34.1099 43.957 34.1598 44.8955 34.2347 45.6343C34.3096 46.3731 34.5242 46.9821 34.8786 47.4613C35.1432 47.7908 35.5426 48.0703 36.0767 48.295C36.6059 48.5196 37.3746 48.6344 38.378 48.6344C39.2316 48.6344 40.1651 48.5745 41.1685 48.4547C42.1719 48.3349 43.1453 48.0204 44.0938 47.5062C45.3318 46.8423 46.2952 45.9637 46.9741 44.8655C47.653 43.7673 47.9925 42.4494 47.9925 40.9169V40.9269Z" fill="#1E1E1E"/>
<path d="M3.61915 2.98819C3.51432 2.58384 3.37455 2.28932 3.19983 2.10961C2.75555 1.63038 2.26135 1.3059 1.71723 1.14117C1.27793 1.00639 0.758774 0.891574 0.164733 0.786743C0.0698865 9.69735 0.0698865 21.3385 0.0549107 32.176C0.56908 32.0662 1.07327 31.9364 1.55748 31.7617C2.23639 31.5221 2.76553 31.1577 3.14991 30.6784C3.29967 30.4987 3.41448 30.2292 3.50434 29.8648C3.59419 29.5004 3.65909 29.096 3.70402 28.6467C3.74894 28.1975 3.78389 27.7132 3.81384 27.2041C3.84379 26.6949 3.85876 26.1957 3.85876 25.7165C3.85876 25.2971 3.86376 24.7231 3.87873 23.9992C3.89371 23.2754 3.90868 22.4867 3.92366 21.6281C3.93864 20.7695 3.94363 19.8909 3.94363 18.9873V7.57078C3.94363 7.03165 3.93364 6.48254 3.92366 5.92344C3.90868 5.36934 3.87873 4.84019 3.83381 4.34599C3.78888 3.8468 3.714 3.39752 3.61416 2.99318L3.61915 2.98819Z" fill="#1E1E1E"/>
<path d="M51.402 45.6692C50.8678 46.3332 50.2788 46.8973 49.6298 47.3615C48.9809 47.8258 48.3269 48.1802 47.678 48.4198C47.3635 48.5396 47.029 48.6394 46.6946 48.7343C48.7612 48.7193 50.743 48.7043 52.605 48.6844C52.595 47.1768 52.58 45.4845 52.5651 43.6525C52.2556 44.4063 51.8712 45.0802 51.402 45.6692V45.6692Z" fill="#1E1E1E"/>
<path d="M15.2004 16.0571C16.1439 15.7576 16.9576 15.3482 17.6365 14.839C18.3154 14.3299 18.8695 13.7508 19.2988 13.1018C19.7281 12.4529 20.0426 11.754 20.2523 11.0052C20.4569 10.2514 20.5618 9.47271 20.5618 8.65902C20.5618 7.15645 20.1924 5.81362 19.4536 4.64051C18.7148 3.46741 17.6365 2.53392 16.2188 1.84004C15.5099 1.51057 14.7661 1.27096 13.9824 1.11621C13.1987 0.96645 12.38 0.891571 11.5264 0.891571C10.9074 0.891571 10.4032 0.906547 10.0188 0.936498C9.63443 0.96645 9.33991 0.996402 9.13524 1.02635C9.10529 1.20606 9.07534 1.3658 9.04539 1.50059C9.01543 1.63537 8.99547 1.81009 8.98049 2.01975C8.96551 2.22941 8.95054 2.52393 8.93556 2.89833C8.92059 3.27272 8.90062 3.80686 8.87067 4.50074C8.84072 5.55404 8.82075 6.74212 8.80577 8.06498C8.7908 9.38784 8.7858 10.6658 8.7858 11.9038V16.8708C9.99385 16.8708 11.127 16.8208 12.1753 16.711C13.2236 16.6062 14.237 16.3865 15.2104 16.0571H15.2004Z" fill="#1E1E1E"/>
<path d="M26.7118 48.285C27.3758 48.0154 27.9149 47.6361 28.3292 47.1568C28.474 46.9771 28.5938 46.7125 28.6837 46.3681C28.7735 46.0237 28.8534 45.6243 28.9283 45.17C29.0031 44.7208 29.0531 44.2465 29.083 43.7473C29.113 43.2531 29.1279 42.7639 29.1279 42.2797C29.1279 41.8604 29.1329 41.2863 29.1479 40.5625C29.1629 39.8387 29.1779 39.0499 29.1928 38.1913C29.2078 37.3327 29.2128 36.4541 29.2128 35.5506V32.7501H23.8415C23.5769 32.4805 23.3822 32.2759 23.2674 32.1411C23.1476 32.0063 23.0178 31.8466 22.8681 31.6669C22.7183 31.4871 22.5336 31.2226 22.3139 30.8781C22.0943 30.5337 21.7449 30.0145 21.2756 29.3206C20.7165 28.477 20.2223 27.7182 19.793 27.0393C19.3637 26.3604 18.9294 25.6915 18.4851 25.0326C18.0409 24.3687 17.5616 23.6997 17.0475 23.0258C16.5283 22.3469 15.9193 21.5881 15.2104 20.7445C14.6214 20.0506 13.9774 19.4067 13.2835 18.8026C12.5897 18.1986 11.8608 17.8242 11.0921 17.6745C10.533 17.5547 10.1037 17.4948 9.80915 17.4948C9.54458 17.4948 9.20513 17.4798 8.7908 17.4498V22.5516C8.7908 23.9943 8.80577 25.2123 8.83573 26.2057C8.86568 27.1691 8.89563 27.9978 8.92558 28.6867C8.95553 29.3806 9.11527 29.9496 9.41479 30.4039C9.64941 30.7933 10.1087 31.1926 10.7876 31.602C11.4665 32.0063 12.41 32.2409 13.623 32.3008V32.7501H0.0549113C0.0449274 38.2612 0.0349435 43.5477 0 48.1402V48.8591H0.743798C7.75247 48.8191 16.3087 48.8142 24.9397 48.7992C25.5587 48.6794 26.1478 48.5047 26.7118 48.275V48.285Z" fill="#1E1E1E"/>
</g>
<defs>
<clipPath id="clip0_4_9">
<rect width="52.61" height="48.0823" fill="white" transform="translate(0 0.786743)"/>
</clipPath>
</defs>
</svg>
